<mxfile host="Electron" agent="Mozilla/5.0 (Windows NT 10.0; Win64; x64) AppleWebKit/537.36 (KHTML, like Gecko) draw.io/26.2.15 Chrome/134.0.6998.205 Electron/35.2.1 Safari/537.36" version="26.2.15">
  <diagram name="Page-1" id="7hRWCEBqFAPLvH1NTwiv">
    <mxGraphModel dx="1478" dy="599" grid="1" gridSize="10" guides="1" tooltips="1" connect="1" arrows="1" fold="1" page="1" pageScale="1" pageWidth="570" pageHeight="940" math="0" shadow="0">
      <root>
        <mxCell id="0" />
        <mxCell id="1" parent="0" />
        <mxCell id="5yFlR-ZElDVHn4iCH6Yo-45" value="&lt;p style=&quot;margin:0px;margin-top:4px;text-align:center;&quot;&gt;&lt;i&gt;&amp;lt;&amp;lt;Abstract&amp;gt;&amp;gt;&lt;/i&gt;&lt;br&gt;&lt;b&gt;+ Controller&lt;/b&gt;&lt;/p&gt;&lt;hr size=&quot;1&quot; style=&quot;border-style:solid;&quot;&gt;&lt;p style=&quot;margin:0px;margin-left:4px;&quot;&gt;&amp;nbsp;- view : View&lt;/p&gt;&lt;hr size=&quot;1&quot; style=&quot;border-style:solid;&quot;&gt;&lt;p style=&quot;margin:0px;margin-left:4px;&quot;&gt;&lt;font style=&quot;color: rgb(0, 204, 0);&quot;&gt;&amp;nbsp;+ TraitEvent()&lt;/font&gt;&lt;/p&gt;&lt;p style=&quot;margin:0px;margin-left:4px;&quot;&gt;&lt;font style=&quot;color: rgb(255, 0, 0);&quot;&gt;&amp;nbsp;+ updateController()&lt;/font&gt;&lt;/p&gt;" style="verticalAlign=top;align=left;overflow=fill;html=1;whiteSpace=wrap;fillColor=none;" parent="1" vertex="1">
          <mxGeometry x="520" y="115" width="190" height="105" as="geometry" />
        </mxCell>
        <mxCell id="5yFlR-ZElDVHn4iCH6Yo-46" value="+ MouseController" style="swimlane;fontStyle=1;align=center;verticalAlign=top;childLayout=stackLayout;horizontal=1;startSize=26;horizontalStack=0;resizeParent=1;resizeParentMax=0;resizeLast=0;collapsible=1;marginBottom=0;whiteSpace=wrap;html=1;fillColor=none;" parent="1" vertex="1">
          <mxGeometry x="420" y="350" width="160" height="90" as="geometry" />
        </mxCell>
        <mxCell id="5yFlR-ZElDVHn4iCH6Yo-47" value="" style="line;strokeWidth=1;fillColor=none;align=left;verticalAlign=middle;spacingTop=-1;spacingLeft=3;spacingRight=3;rotatable=0;labelPosition=right;points=[];portConstraint=eastwest;strokeColor=inherit;" parent="5yFlR-ZElDVHn4iCH6Yo-46" vertex="1">
          <mxGeometry y="26" width="160" height="8" as="geometry" />
        </mxCell>
        <mxCell id="5yFlR-ZElDVHn4iCH6Yo-48" value="&lt;font style=&quot;color: rgb(0, 204, 0);&quot;&gt;+ TraitEvent()&lt;/font&gt;&lt;div&gt;&lt;font style=&quot;color: rgb(0, 204, 0);&quot;&gt;+ ModifyModel()&lt;/font&gt;&lt;/div&gt;&lt;div&gt;&lt;font style=&quot;color: rgb(0, 204, 0);&quot;&gt;&lt;span style=&quot;color: rgb(255, 0, 0);&quot;&gt;+ checkState()&lt;/span&gt;&lt;/font&gt;&lt;/div&gt;" style="text;strokeColor=none;fillColor=none;align=left;verticalAlign=top;spacingLeft=4;spacingRight=4;overflow=hidden;rotatable=0;points=[[0,0.5],[1,0.5]];portConstraint=eastwest;whiteSpace=wrap;html=1;" parent="5yFlR-ZElDVHn4iCH6Yo-46" vertex="1">
          <mxGeometry y="34" width="160" height="56" as="geometry" />
        </mxCell>
        <mxCell id="5yFlR-ZElDVHn4iCH6Yo-49" value="+ KeyController" style="swimlane;fontStyle=1;align=center;verticalAlign=top;childLayout=stackLayout;horizontal=1;startSize=26;horizontalStack=0;resizeParent=1;resizeParentMax=0;resizeLast=0;collapsible=1;marginBottom=0;whiteSpace=wrap;html=1;fillColor=none;" parent="1" vertex="1">
          <mxGeometry x="680" y="350" width="160" height="90" as="geometry" />
        </mxCell>
        <mxCell id="5yFlR-ZElDVHn4iCH6Yo-50" value="" style="line;strokeWidth=1;fillColor=none;align=left;verticalAlign=middle;spacingTop=-1;spacingLeft=3;spacingRight=3;rotatable=0;labelPosition=right;points=[];portConstraint=eastwest;strokeColor=inherit;" parent="5yFlR-ZElDVHn4iCH6Yo-49" vertex="1">
          <mxGeometry y="26" width="160" height="8" as="geometry" />
        </mxCell>
        <mxCell id="5yFlR-ZElDVHn4iCH6Yo-51" value="&lt;font style=&quot;color: rgb(0, 204, 0);&quot;&gt;+ TraitEvent()&lt;/font&gt;&lt;div&gt;&lt;font style=&quot;color: rgb(0, 204, 0);&quot;&gt;+ ModifyModel()&lt;/font&gt;&lt;/div&gt;&lt;div&gt;&lt;font style=&quot;color: rgb(255, 0, 0);&quot;&gt;+ checkState()&lt;/font&gt;&lt;/div&gt;" style="text;strokeColor=none;fillColor=none;align=left;verticalAlign=top;spacingLeft=4;spacingRight=4;overflow=hidden;rotatable=0;points=[[0,0.5],[1,0.5]];portConstraint=eastwest;whiteSpace=wrap;html=1;" parent="5yFlR-ZElDVHn4iCH6Yo-49" vertex="1">
          <mxGeometry y="34" width="160" height="56" as="geometry" />
        </mxCell>
        <mxCell id="5yFlR-ZElDVHn4iCH6Yo-52" value="" style="endArrow=block;endFill=0;endSize=16;html=1;rounded=0;exitX=0.5;exitY=0;exitDx=0;exitDy=0;entryX=0.25;entryY=1;entryDx=0;entryDy=0;" parent="1" source="5yFlR-ZElDVHn4iCH6Yo-46" target="5yFlR-ZElDVHn4iCH6Yo-45" edge="1">
          <mxGeometry width="160" relative="1" as="geometry">
            <mxPoint x="310" y="260" as="sourcePoint" />
            <mxPoint x="470" y="260" as="targetPoint" />
          </mxGeometry>
        </mxCell>
        <mxCell id="5yFlR-ZElDVHn4iCH6Yo-53" value="" style="endArrow=block;endFill=0;endSize=16;html=1;rounded=0;exitX=0.5;exitY=0;exitDx=0;exitDy=0;entryX=0.75;entryY=1;entryDx=0;entryDy=0;" parent="1" source="5yFlR-ZElDVHn4iCH6Yo-49" target="5yFlR-ZElDVHn4iCH6Yo-45" edge="1">
          <mxGeometry width="160" relative="1" as="geometry">
            <mxPoint x="573" y="290" as="sourcePoint" />
            <mxPoint x="510" y="200" as="targetPoint" />
          </mxGeometry>
        </mxCell>
        <mxCell id="5yFlR-ZElDVHn4iCH6Yo-54" value="&lt;p style=&quot;margin:0px;margin-top:4px;text-align:center;&quot;&gt;&lt;font style=&quot;color: rgb(0, 0, 0);&quot;&gt;&lt;i style=&quot;&quot;&gt;&amp;lt;&amp;lt;Abstract&amp;gt;&amp;gt;&lt;/i&gt;&lt;br&gt;&lt;b style=&quot;&quot;&gt;+ View&lt;/b&gt;&lt;/font&gt;&lt;/p&gt;&lt;hr size=&quot;1&quot; style=&quot;border-style:solid;&quot;&gt;&lt;p style=&quot;margin:0px;margin-left:4px;&quot;&gt;&lt;font style=&quot;color: rgb(0, 204, 0);&quot;&gt;&amp;nbsp;&lt;font style=&quot;color: rgb(0, 204, 0);&quot;&gt;- con : Controller&lt;/font&gt;&lt;/font&gt;&lt;/p&gt;&lt;hr size=&quot;1&quot; style=&quot;border-style:solid;&quot;&gt;&lt;p style=&quot;margin:0px;margin-left:4px;&quot;&gt;&lt;font style=&quot;color: rgb(0, 204, 0);&quot;&gt;&amp;nbsp;+ HandleEvent()&lt;/font&gt;&lt;/p&gt;&lt;p style=&quot;margin:0px;margin-left:4px;&quot;&gt;&lt;font style=&quot;color: rgb(0, 0, 0);&quot;&gt;&amp;nbsp;+ updateView()&lt;/font&gt;&lt;/p&gt;" style="verticalAlign=top;align=left;overflow=fill;html=1;whiteSpace=wrap;fillColor=none;" parent="1" vertex="1">
          <mxGeometry x="-20" y="100" width="190" height="110" as="geometry" />
        </mxCell>
        <mxCell id="5yFlR-ZElDVHn4iCH6Yo-55" value="+ simpleView" style="swimlane;fontStyle=1;align=center;verticalAlign=top;childLayout=stackLayout;horizontal=1;startSize=26;horizontalStack=0;resizeParent=1;resizeParentMax=0;resizeLast=0;collapsible=1;marginBottom=0;whiteSpace=wrap;html=1;fillColor=none;" parent="1" vertex="1">
          <mxGeometry x="-150" y="350" width="160" height="60" as="geometry" />
        </mxCell>
        <mxCell id="5yFlR-ZElDVHn4iCH6Yo-56" value="" style="line;strokeWidth=1;fillColor=none;align=left;verticalAlign=middle;spacingTop=-1;spacingLeft=3;spacingRight=3;rotatable=0;labelPosition=right;points=[];portConstraint=eastwest;strokeColor=inherit;" parent="5yFlR-ZElDVHn4iCH6Yo-55" vertex="1">
          <mxGeometry y="26" width="160" height="8" as="geometry" />
        </mxCell>
        <mxCell id="5yFlR-ZElDVHn4iCH6Yo-57" value="&lt;font style=&quot;color: rgb(0, 0, 0);&quot;&gt;+ updateView()&lt;/font&gt;" style="text;strokeColor=none;fillColor=none;align=left;verticalAlign=top;spacingLeft=4;spacingRight=4;overflow=hidden;rotatable=0;points=[[0,0.5],[1,0.5]];portConstraint=eastwest;whiteSpace=wrap;html=1;" parent="5yFlR-ZElDVHn4iCH6Yo-55" vertex="1">
          <mxGeometry y="34" width="160" height="26" as="geometry" />
        </mxCell>
        <mxCell id="5yFlR-ZElDVHn4iCH6Yo-58" value="+ complexView" style="swimlane;fontStyle=1;align=center;verticalAlign=top;childLayout=stackLayout;horizontal=1;startSize=26;horizontalStack=0;resizeParent=1;resizeParentMax=0;resizeLast=0;collapsible=1;marginBottom=0;whiteSpace=wrap;html=1;fillColor=none;" parent="1" vertex="1">
          <mxGeometry x="100" y="330" width="160" height="120" as="geometry" />
        </mxCell>
        <mxCell id="5yFlR-ZElDVHn4iCH6Yo-59" value="&lt;font style=&quot;color: light-dark(rgb(40, 107, 215), rgb(237, 237, 237));&quot;&gt;- viewList : List&amp;lt;View&amp;gt;&lt;/font&gt;" style="text;strokeColor=none;fillColor=none;align=left;verticalAlign=top;spacingLeft=4;spacingRight=4;overflow=hidden;rotatable=0;points=[[0,0.5],[1,0.5]];portConstraint=eastwest;whiteSpace=wrap;html=1;" parent="5yFlR-ZElDVHn4iCH6Yo-58" vertex="1">
          <mxGeometry y="26" width="160" height="26" as="geometry" />
        </mxCell>
        <mxCell id="5yFlR-ZElDVHn4iCH6Yo-60" value="" style="line;strokeWidth=1;fillColor=none;align=left;verticalAlign=middle;spacingTop=-1;spacingLeft=3;spacingRight=3;rotatable=0;labelPosition=right;points=[];portConstraint=eastwest;strokeColor=inherit;" parent="5yFlR-ZElDVHn4iCH6Yo-58" vertex="1">
          <mxGeometry y="52" width="160" height="8" as="geometry" />
        </mxCell>
        <mxCell id="5yFlR-ZElDVHn4iCH6Yo-61" value="&lt;div&gt;&lt;font style=&quot;color: rgb(40, 107, 215);&quot;&gt;+ addView(view)&lt;/font&gt;&lt;/div&gt;&lt;div&gt;&lt;font style=&quot;color: rgb(40, 107, 215);&quot;&gt;+ deleteView(view)&lt;/font&gt;&lt;/div&gt;&lt;font style=&quot;color: rgb(0, 0, 0);&quot;&gt;+ updateView()&lt;/font&gt;" style="text;strokeColor=none;fillColor=none;align=left;verticalAlign=top;spacingLeft=4;spacingRight=4;overflow=hidden;rotatable=0;points=[[0,0.5],[1,0.5]];portConstraint=eastwest;whiteSpace=wrap;html=1;" parent="5yFlR-ZElDVHn4iCH6Yo-58" vertex="1">
          <mxGeometry y="60" width="160" height="60" as="geometry" />
        </mxCell>
        <mxCell id="5yFlR-ZElDVHn4iCH6Yo-62" value="" style="endArrow=block;endFill=0;endSize=16;html=1;rounded=0;exitX=0.5;exitY=0;exitDx=0;exitDy=0;entryX=0.25;entryY=1;entryDx=0;entryDy=0;" parent="1" source="5yFlR-ZElDVHn4iCH6Yo-55" target="5yFlR-ZElDVHn4iCH6Yo-54" edge="1">
          <mxGeometry width="160" relative="1" as="geometry">
            <mxPoint x="-78" y="330" as="sourcePoint" />
            <mxPoint x="10" y="255" as="targetPoint" />
          </mxGeometry>
        </mxCell>
        <mxCell id="5yFlR-ZElDVHn4iCH6Yo-63" value="" style="endArrow=block;endFill=0;endSize=16;html=1;rounded=0;exitX=0.5;exitY=0;exitDx=0;exitDy=0;entryX=0.75;entryY=1;entryDx=0;entryDy=0;" parent="1" source="5yFlR-ZElDVHn4iCH6Yo-58" target="5yFlR-ZElDVHn4iCH6Yo-54" edge="1">
          <mxGeometry width="160" relative="1" as="geometry">
            <mxPoint x="38" y="360" as="sourcePoint" />
            <mxPoint x="-60" y="220" as="targetPoint" />
          </mxGeometry>
        </mxCell>
        <mxCell id="5yFlR-ZElDVHn4iCH6Yo-64" value="" style="endArrow=diamondThin;endFill=0;endSize=24;html=1;rounded=0;entryX=0.999;entryY=0.613;entryDx=0;entryDy=0;entryPerimeter=0;strokeColor=#00CC00;" parent="1" target="5yFlR-ZElDVHn4iCH6Yo-54" edge="1">
          <mxGeometry width="160" relative="1" as="geometry">
            <mxPoint x="520" y="169" as="sourcePoint" />
            <mxPoint x="38" y="220" as="targetPoint" />
          </mxGeometry>
        </mxCell>
        <mxCell id="5yFlR-ZElDVHn4iCH6Yo-65" value="" style="endArrow=diamondThin;endFill=0;endSize=24;html=1;rounded=0;entryX=1.007;entryY=0.17;entryDx=0;entryDy=0;entryPerimeter=0;exitX=1.001;exitY=0.815;exitDx=0;exitDy=0;exitPerimeter=0;fillColor=#b1ddf0;strokeColor=#286BD7;" parent="1" source="5yFlR-ZElDVHn4iCH6Yo-54" target="5yFlR-ZElDVHn4iCH6Yo-61" edge="1">
          <mxGeometry width="160" relative="1" as="geometry">
            <mxPoint x="360" y="190" as="sourcePoint" />
            <mxPoint x="270" y="390" as="targetPoint" />
            <Array as="points">
              <mxPoint x="260" y="190" />
              <mxPoint x="360" y="190" />
              <mxPoint x="360" y="400" />
            </Array>
          </mxGeometry>
        </mxCell>
        <mxCell id="5yFlR-ZElDVHn4iCH6Yo-66" value="&lt;font style=&quot;color: rgb(255, 0, 0);&quot;&gt;Observer&lt;/font&gt;" style="whiteSpace=wrap;html=1;shape=mxgraph.basic.document;fillColor=none;strokeColor=#FF0000;" parent="1" vertex="1">
          <mxGeometry x="640" y="25" width="100" height="50" as="geometry" />
        </mxCell>
        <mxCell id="5yFlR-ZElDVHn4iCH6Yo-67" value="&lt;font color=&quot;#00cc00&quot;&gt;Context&lt;/font&gt;" style="whiteSpace=wrap;html=1;shape=mxgraph.basic.document;fillColor=none;strokeColor=#00CC00;" parent="1" vertex="1">
          <mxGeometry x="30" y="10" width="100" height="50" as="geometry" />
        </mxCell>
        <mxCell id="5yFlR-ZElDVHn4iCH6Yo-68" value="&lt;font color=&quot;#00cc00&quot;&gt;Strategies&lt;/font&gt;" style="whiteSpace=wrap;html=1;shape=mxgraph.basic.document;fillColor=none;strokeColor=#00CC00;" parent="1" vertex="1">
          <mxGeometry x="520" y="25" width="100" height="50" as="geometry" />
        </mxCell>
        <mxCell id="5yFlR-ZElDVHn4iCH6Yo-69" value="&lt;font color=&quot;#286bd7&quot;&gt;Composite&lt;/font&gt;" style="whiteSpace=wrap;html=1;shape=mxgraph.basic.document;fillColor=none;strokeColor=#286BD7;" parent="1" vertex="1">
          <mxGeometry x="185" y="240" width="100" height="50" as="geometry" />
        </mxCell>
        <mxCell id="5yFlR-ZElDVHn4iCH6Yo-70" value="" style="endArrow=none;html=1;strokeColor=#286BD7;bendable=1;rounded=0;endFill=0;endSize=4;startArrow=none;startFill=0;startSize=4;jumpStyle=none;jumpSize=0;targetPerimeterSpacing=15;dashed=1;strokeWidth=1.5;entryX=0.5;entryY=1;entryDx=0;entryDy=0;entryPerimeter=0;" parent="1" target="5yFlR-ZElDVHn4iCH6Yo-69" edge="1">
          <mxGeometry width="50" height="50" relative="1" as="geometry">
            <mxPoint x="235" y="330" as="sourcePoint" />
            <mxPoint x="200" y="270" as="targetPoint" />
          </mxGeometry>
        </mxCell>
        <mxCell id="5yFlR-ZElDVHn4iCH6Yo-71" value="" style="endArrow=none;html=1;strokeColor=#00CC00;bendable=0;rounded=0;endFill=0;endSize=4;startArrow=none;startFill=0;startSize=4;jumpStyle=none;jumpSize=0;targetPerimeterSpacing=15;dashed=1;strokeWidth=1.5;entryX=0.5;entryY=1;entryDx=0;entryDy=0;entryPerimeter=0;exitX=0.264;exitY=0.005;exitDx=0;exitDy=0;exitPerimeter=0;" parent="1" source="5yFlR-ZElDVHn4iCH6Yo-45" target="5yFlR-ZElDVHn4iCH6Yo-68" edge="1">
          <mxGeometry width="50" height="50" relative="1" as="geometry">
            <mxPoint x="570" y="110" as="sourcePoint" />
            <mxPoint x="619.78" y="75" as="targetPoint" />
          </mxGeometry>
        </mxCell>
        <mxCell id="5yFlR-ZElDVHn4iCH6Yo-72" value="" style="endArrow=none;html=1;strokeColor=#00CC00;bendable=0;rounded=0;endFill=0;endSize=4;startArrow=none;startFill=0;startSize=4;jumpStyle=none;jumpSize=0;targetPerimeterSpacing=15;dashed=1;strokeWidth=1.5;entryX=0.5;entryY=1;entryDx=0;entryDy=0;entryPerimeter=0;" parent="1" target="5yFlR-ZElDVHn4iCH6Yo-67" edge="1">
          <mxGeometry width="50" height="50" relative="1" as="geometry">
            <mxPoint x="80" y="100" as="sourcePoint" />
            <mxPoint x="10.220000000000027" y="60" as="targetPoint" />
          </mxGeometry>
        </mxCell>
        <mxCell id="5yFlR-ZElDVHn4iCH6Yo-73" value="" style="endArrow=none;html=1;strokeColor=#FF0000;bendable=0;rounded=0;endFill=0;endSize=4;startArrow=none;startFill=0;startSize=4;jumpStyle=none;jumpSize=0;targetPerimeterSpacing=15;dashed=1;strokeWidth=1.5;entryX=0.5;entryY=1;entryDx=0;entryDy=0;entryPerimeter=0;" parent="1" edge="1">
          <mxGeometry width="50" height="50" relative="1" as="geometry">
            <mxPoint x="689.8" y="115" as="sourcePoint" />
            <mxPoint x="690.02" y="75" as="targetPoint" />
          </mxGeometry>
        </mxCell>
        <mxCell id="5yFlR-ZElDVHn4iCH6Yo-74" value="" style="group" parent="1" vertex="1" connectable="0">
          <mxGeometry x="920" y="10" width="190" height="420" as="geometry" />
        </mxCell>
        <mxCell id="5yFlR-ZElDVHn4iCH6Yo-75" value="&lt;p style=&quot;margin:0px;margin-top:4px;text-align:center;&quot;&gt;&lt;i&gt;&amp;lt;&amp;lt;Abstract&amp;gt;&amp;gt;&lt;/i&gt;&lt;br&gt;&lt;b&gt;+ Model&lt;/b&gt;&lt;/p&gt;&lt;hr size=&quot;1&quot; style=&quot;border-style:solid;&quot;&gt;&lt;p style=&quot;margin:0px;margin-left:4px;&quot;&gt;&lt;font style=&quot;color: rgb(255, 0, 0);&quot;&gt;&amp;nbsp;- obsList : List&amp;lt;Controller&amp;gt;&lt;/font&gt;&lt;/p&gt;&lt;hr size=&quot;1&quot; style=&quot;border-style:solid;&quot;&gt;&lt;div&gt;&amp;nbsp; &lt;font style=&quot;color: rgb(255, 0, 0);&quot;&gt;+ addController(controller)&lt;/font&gt;&lt;/div&gt;&lt;div&gt;&lt;font style=&quot;color: rgb(255, 0, 0);&quot;&gt;&amp;nbsp; + deleteController(controller)&lt;/font&gt;&lt;/div&gt;&lt;p style=&quot;margin:0px;margin-left:4px;&quot;&gt;&lt;font style=&quot;color: rgb(255, 0, 0);&quot;&gt;&amp;nbsp;+ notifyController()&lt;/font&gt;&lt;/p&gt;" style="verticalAlign=top;align=left;overflow=fill;html=1;whiteSpace=wrap;fillColor=none;" parent="5yFlR-ZElDVHn4iCH6Yo-74" vertex="1">
          <mxGeometry y="90" width="190" height="120" as="geometry" />
        </mxCell>
        <mxCell id="5yFlR-ZElDVHn4iCH6Yo-76" value="&lt;div style=&quot;text-align: start;&quot;&gt;&lt;span style=&quot;background-color: transparent; color: light-dark(rgb(0, 0, 0), rgb(255, 255, 255));&quot;&gt;+concreteModel&lt;/span&gt;&lt;/div&gt;" style="swimlane;fontStyle=1;align=center;verticalAlign=top;childLayout=stackLayout;horizontal=1;startSize=26;horizontalStack=0;resizeParent=1;resizeParentMax=0;resizeLast=0;collapsible=1;marginBottom=0;whiteSpace=wrap;html=1;fillColor=none;" parent="5yFlR-ZElDVHn4iCH6Yo-74" vertex="1">
          <mxGeometry x="15" y="320" width="160" height="100" as="geometry" />
        </mxCell>
        <mxCell id="5yFlR-ZElDVHn4iCH6Yo-77" value="&lt;font style=&quot;color: rgb(255, 0, 0);&quot;&gt;- State&lt;/font&gt;" style="text;strokeColor=none;fillColor=none;align=left;verticalAlign=top;spacingLeft=4;spacingRight=4;overflow=hidden;rotatable=0;points=[[0,0.5],[1,0.5]];portConstraint=eastwest;whiteSpace=wrap;html=1;" parent="5yFlR-ZElDVHn4iCH6Yo-76" vertex="1">
          <mxGeometry y="26" width="160" height="26" as="geometry" />
        </mxCell>
        <mxCell id="5yFlR-ZElDVHn4iCH6Yo-78" value="" style="line;strokeWidth=1;fillColor=none;align=left;verticalAlign=middle;spacingTop=-1;spacingLeft=3;spacingRight=3;rotatable=0;labelPosition=right;points=[];portConstraint=eastwest;strokeColor=inherit;" parent="5yFlR-ZElDVHn4iCH6Yo-76" vertex="1">
          <mxGeometry y="52" width="160" height="8" as="geometry" />
        </mxCell>
        <mxCell id="5yFlR-ZElDVHn4iCH6Yo-79" value="&lt;font style=&quot;color: rgb(255, 0, 0);&quot;&gt;+ updateModel()&lt;/font&gt;&lt;div&gt;&lt;font style=&quot;color: rgb(255, 0, 0);&quot;&gt;+ getState()&lt;/font&gt;&lt;/div&gt;" style="text;strokeColor=none;fillColor=none;align=left;verticalAlign=top;spacingLeft=4;spacingRight=4;overflow=hidden;rotatable=0;points=[[0,0.5],[1,0.5]];portConstraint=eastwest;whiteSpace=wrap;html=1;" parent="5yFlR-ZElDVHn4iCH6Yo-76" vertex="1">
          <mxGeometry y="60" width="160" height="40" as="geometry" />
        </mxCell>
        <mxCell id="5yFlR-ZElDVHn4iCH6Yo-80" value="" style="endArrow=block;endFill=0;endSize=16;html=1;rounded=0;exitX=0.5;exitY=0;exitDx=0;exitDy=0;entryX=0.5;entryY=1;entryDx=0;entryDy=0;" parent="5yFlR-ZElDVHn4iCH6Yo-74" source="5yFlR-ZElDVHn4iCH6Yo-76" target="5yFlR-ZElDVHn4iCH6Yo-75" edge="1">
          <mxGeometry width="160" relative="1" as="geometry">
            <mxPoint x="370" y="350" as="sourcePoint" />
            <mxPoint x="468" y="210" as="targetPoint" />
          </mxGeometry>
        </mxCell>
        <mxCell id="5yFlR-ZElDVHn4iCH6Yo-81" value="&lt;font color=&quot;#ff0000&quot;&gt;Subject&lt;/font&gt;" style="whiteSpace=wrap;html=1;shape=mxgraph.basic.document;fillColor=none;strokeColor=#FF0000;" parent="5yFlR-ZElDVHn4iCH6Yo-74" vertex="1">
          <mxGeometry x="45" width="100" height="50" as="geometry" />
        </mxCell>
        <mxCell id="5yFlR-ZElDVHn4iCH6Yo-82" value="" style="endArrow=none;html=1;strokeColor=#FF0000;bendable=0;rounded=0;endFill=0;endSize=4;startArrow=none;startFill=0;startSize=4;jumpStyle=none;jumpSize=0;targetPerimeterSpacing=15;dashed=1;strokeWidth=1.5;entryX=0.5;entryY=1;entryDx=0;entryDy=0;entryPerimeter=0;" parent="5yFlR-ZElDVHn4iCH6Yo-74" edge="1">
          <mxGeometry width="50" height="50" relative="1" as="geometry">
            <mxPoint x="94.41000000000003" y="90" as="sourcePoint" />
            <mxPoint x="94.63000000000005" y="50" as="targetPoint" />
          </mxGeometry>
        </mxCell>
        <mxCell id="5yFlR-ZElDVHn4iCH6Yo-83" value="" style="endArrow=open;endFill=1;endSize=12;html=1;rounded=0;" parent="1" edge="1">
          <mxGeometry width="160" relative="1" as="geometry">
            <mxPoint x="920" y="170" as="sourcePoint" />
            <mxPoint x="710" y="170" as="targetPoint" />
          </mxGeometry>
        </mxCell>
        <mxCell id="5yFlR-ZElDVHn4iCH6Yo-84" value="" style="endArrow=open;endFill=1;endSize=12;html=1;rounded=0;strokeColor=#FF0000;entryX=0.002;entryY=0.269;entryDx=0;entryDy=0;entryPerimeter=0;" parent="1" target="5yFlR-ZElDVHn4iCH6Yo-79" edge="1">
          <mxGeometry width="160" relative="1" as="geometry">
            <mxPoint x="840" y="400" as="sourcePoint" />
            <mxPoint x="930" y="400" as="targetPoint" />
          </mxGeometry>
        </mxCell>
        <mxCell id="5yFlR-ZElDVHn4iCH6Yo-85" value="" style="endArrow=open;endFill=1;endSize=12;html=1;rounded=0;strokeColor=#FF0000;exitX=0.501;exitY=1.019;exitDx=0;exitDy=0;exitPerimeter=0;" parent="1" source="5yFlR-ZElDVHn4iCH6Yo-48" edge="1">
          <mxGeometry width="160" relative="1" as="geometry">
            <mxPoint x="500" y="439" as="sourcePoint" />
            <mxPoint x="1020" y="431" as="targetPoint" />
            <Array as="points">
              <mxPoint x="500" y="480" />
              <mxPoint x="1020" y="480" />
            </Array>
          </mxGeometry>
        </mxCell>
      </root>
    </mxGraphModel>
  </diagram>
</mxfile>
